<svg xmlns="http://www.w3.org/2000/svg" width="3000" height="912" viewBox="0 0 3000 912" fill="none"
    style="&#10;    width: 214px;&#10;">
    <path d="M121.594 418.75H1786.41V614.76H121.594V418.75Z" fill="#1B1819" />
    <path
        d="M800.984 797.085H834.843V660.772H800.984V618.999H906.957V648.02C913.699 636.881 922.201 628.526 932.461 622.956C943.014 617.386 955.326 614.602 969.397 614.602C986.4 614.602 1001.06 618.559 1013.37 626.474C1025.68 634.096 1035.21 645.235 1041.95 659.893C1048.69 674.55 1052.06 691.699 1052.06 711.34V797.085H1081.09V838.859H948.291V797.085H975.553V717.056C975.553 698.295 972.915 684.224 967.638 674.843C962.362 665.463 955.033 660.772 945.652 660.772C938.617 660.772 932.461 663.411 927.184 668.687C921.907 673.671 917.803 680.853 914.872 690.233C912.234 699.614 910.914 710.461 910.914 722.773V797.085H937.298V838.859H800.984V797.085Z"
        fill="white" />
    <path
        d="M1221.9 843.256C1197.27 843.256 1175.43 838.419 1156.38 828.745C1137.62 819.071 1122.96 805.587 1112.41 788.291C1101.85 770.995 1096.58 751.208 1096.58 728.929C1096.58 706.65 1101.85 686.862 1112.41 669.567C1122.96 652.271 1137.76 638.786 1156.82 629.112C1175.87 619.438 1197.57 614.602 1221.9 614.602C1246.23 614.602 1267.92 619.438 1286.97 629.112C1306.03 638.786 1320.83 652.271 1331.39 669.567C1341.94 686.862 1347.22 706.65 1347.22 728.929C1347.22 750.915 1341.79 770.556 1330.95 787.851C1320.39 805.147 1305.59 818.778 1286.54 828.745C1267.48 838.419 1245.93 843.256 1221.9 843.256ZM1221.9 802.362C1230.98 802.362 1238.75 799.724 1245.2 794.447C1251.65 788.877 1256.49 780.669 1259.71 769.823C1262.94 758.976 1264.55 745.345 1264.55 728.929C1264.55 712.513 1262.94 698.881 1259.71 688.035C1256.49 676.895 1251.65 668.687 1245.2 663.411C1238.75 657.841 1230.98 655.056 1221.9 655.056C1212.52 655.056 1204.6 657.841 1198.15 663.411C1192 668.687 1187.16 676.895 1183.64 688.035C1180.42 698.881 1178.8 712.513 1178.8 728.929C1178.8 745.345 1180.42 758.976 1183.64 769.823C1187.16 780.669 1192 788.877 1198.15 794.447C1204.6 799.724 1212.52 802.362 1221.9 802.362Z"
        fill="white" />
    <path
        d="M1376.68 660.772H1351.17V618.999H1468.14V660.772H1455.83L1486.17 785.213H1487.49L1510.35 700.787L1497.16 660.772H1479.13V618.999H1603.13V660.772H1582.91L1617.2 785.653H1618.96L1649.3 660.772H1626.44V618.999H1719.66V660.772H1693.72L1644.03 838.859H1563.12L1534.98 732.886L1505.96 838.859H1425.93L1376.68 660.772Z"
        fill="white" />
    <path fill-rule="evenodd" clip-rule="evenodd"
        d="M766.108 720.008C745.845 708.054 732.25 685.999 732.25 660.769V618.995C732.25 581.036 763.022 550.264 800.981 550.264H906.953C912.857 550.264 918.588 551.009 924.055 552.409C938.977 547.833 954.279 545.867 969.394 545.867C997.217 545.867 1025.07 552.435 1050.04 568.34C1062.96 576.416 1074.01 586.251 1083.27 597.396C1095.8 585.641 1110.04 575.776 1125.7 567.824C1155.66 552.615 1188.26 545.867 1221.89 545.867C1252.53 545.867 1282.3 551.464 1310 563.953C1321.48 555.356 1335.73 550.264 1351.17 550.264H1468.14C1469.99 550.264 1471.82 550.338 1473.63 550.481C1475.45 550.338 1477.28 550.264 1479.13 550.264H1603.13C1607.1 550.264 1611 550.601 1614.78 551.248C1618.57 550.601 1622.46 550.264 1626.44 550.264H1719.66C1757.62 550.264 1788.39 581.036 1788.39 618.995V660.769C1788.39 688.803 1771.6 712.917 1747.54 723.61L1710.23 857.327C1701.94 887.037 1674.87 907.586 1644.02 907.586H1563.12C1553 907.586 1543.3 905.378 1534.53 901.366C1525.77 905.379 1516.06 907.586 1505.95 907.586H1425.92C1395.92 907.586 1369.5 888.15 1360.45 859.765C1348.01 871.568 1333.9 881.53 1318.39 889.644C1318.14 889.773 1317.89 889.901 1317.65 890.027C1287.8 905.178 1255.38 911.983 1221.89 911.983C1188.52 911.983 1156.12 905.452 1126.35 890.575C1114.26 901.167 1098.42 907.586 1081.08 907.586H948.287C946.437 907.586 944.604 907.513 942.791 907.37C940.977 907.513 939.144 907.586 937.294 907.586H800.981C763.022 907.586 732.25 876.814 732.25 838.855V797.082C732.25 771.852 745.845 749.797 766.108 737.842V720.008ZM937.294 838.855V797.082H910.911V722.769C910.911 720.827 910.944 718.922 911.009 717.053C911.014 716.913 911.019 716.772 911.025 716.633C911.065 715.568 911.116 714.516 911.178 713.476C911.325 710.999 911.532 708.589 911.8 706.247C912.458 700.502 913.481 695.163 914.868 690.23C917.8 680.849 921.904 673.667 927.181 668.684C929.104 666.76 931.145 665.187 933.302 663.965C937.063 661.834 941.178 660.769 945.649 660.769C948.253 660.769 950.7 661.13 952.988 661.853C953.229 661.93 953.468 662.01 953.705 662.094C959.334 664.089 963.977 668.338 967.635 674.84C968.258 675.947 968.844 677.12 969.394 678.359C970.089 679.927 970.726 681.6 971.304 683.377C973.427 689.91 974.754 697.858 975.285 707.222C975.32 707.855 975.353 708.494 975.381 709.14C975.494 711.678 975.55 714.315 975.55 717.053V797.082H948.287V838.855H1081.08V797.082H1052.06V711.336C1052.06 691.696 1048.69 674.547 1041.95 659.889C1041.72 659.396 1041.49 658.907 1041.26 658.422C1036.44 648.388 1030.27 640.057 1022.75 633.429C1019.82 630.852 1016.7 628.533 1013.37 626.47C1002.57 619.528 989.964 615.631 975.557 614.777C973.538 614.658 971.484 614.598 969.394 614.598C960.827 614.598 952.912 615.63 945.649 617.695C944.257 618.09 942.89 618.524 941.546 618.995C938.384 620.104 935.354 621.424 932.457 622.953C922.337 628.446 913.929 636.649 907.231 647.561C907.138 647.712 907.046 647.864 906.953 648.017V618.995H800.981V660.769H834.839V797.082H800.981V838.855H937.294ZM1096.58 730.105C1096.76 751.903 1102.04 771.298 1112.4 788.287C1114.26 791.337 1116.25 794.269 1118.37 797.082C1119.62 798.747 1120.92 800.37 1122.26 801.952C1129.97 811.04 1139.15 818.757 1149.81 825.104C1151.94 826.371 1154.13 827.584 1156.37 828.742C1158.85 829.997 1161.37 831.17 1163.93 832.262C1164.74 832.608 1165.56 832.945 1166.38 833.274C1182.97 839.926 1201.47 843.253 1221.89 843.253C1241.95 843.253 1260.28 839.884 1276.87 833.148C1277.3 832.972 1277.73 832.793 1278.16 832.613C1281 831.422 1283.79 830.132 1286.53 828.742C1300.55 821.409 1312.27 812.092 1321.69 800.793C1325.07 796.734 1328.15 792.419 1330.94 787.848C1333.31 784.068 1335.43 780.176 1337.28 776.172C1343.84 761.984 1347.15 746.389 1347.21 729.387C1347.21 729.233 1347.21 729.079 1347.21 728.925C1347.21 708.012 1342.56 689.295 1333.27 672.773C1332.66 671.694 1332.03 670.624 1331.38 669.563C1329.52 666.513 1327.53 663.582 1325.4 660.769C1324.03 658.946 1322.59 657.172 1321.1 655.449C1311.87 644.751 1300.49 635.971 1286.97 629.109C1285.48 628.35 1283.97 627.621 1282.44 626.922C1281.06 626.293 1279.68 625.687 1278.28 625.106C1277.84 624.926 1277.41 624.748 1276.97 624.573C1260.43 617.923 1242.07 614.598 1221.89 614.598C1201.13 614.598 1182.29 618.12 1165.37 625.164C1165.31 625.19 1165.25 625.215 1165.19 625.241C1162.34 626.43 1159.55 627.72 1156.81 629.109C1143.02 636.11 1131.46 645.108 1122.12 656.102C1119.85 658.781 1117.7 661.577 1115.69 664.493C1114.55 666.145 1113.46 667.835 1112.4 669.563C1104.71 682.165 1099.83 696.089 1097.74 711.336C1096.96 717.016 1096.57 722.879 1096.57 728.925C1096.57 729.319 1096.57 729.712 1096.58 730.105ZM1198.15 663.407C1192.68 668.09 1188.26 675.081 1184.88 684.381C1184.45 685.56 1184.03 686.777 1183.64 688.031C1183.09 689.874 1182.59 691.796 1182.13 693.799C1179.91 703.589 1178.8 715.297 1178.8 728.925C1178.8 742.647 1179.93 754.423 1182.18 764.253C1182.62 766.183 1183.11 768.039 1183.64 769.819C1183.98 770.882 1184.34 771.919 1184.71 772.931C1184.77 773.099 1184.83 773.265 1184.89 773.432C1188.28 782.506 1192.69 789.51 1198.15 794.444C1204.6 799.72 1212.51 802.359 1221.89 802.359C1230.98 802.359 1238.75 799.72 1245.2 794.444C1250.68 789.705 1255 783.056 1258.16 774.498C1258.27 774.18 1258.39 773.859 1258.5 773.536C1258.93 772.334 1259.33 771.095 1259.71 769.819C1260.28 767.904 1260.8 765.902 1261.27 763.813C1263.45 754.072 1264.55 742.443 1264.55 728.925C1264.55 715.135 1263.41 703.309 1261.13 693.449C1260.7 691.572 1260.22 689.766 1259.71 688.031C1259.39 686.924 1259.05 685.846 1258.7 684.796C1255.51 675.289 1251.01 668.159 1245.2 663.407C1238.75 657.837 1230.98 655.052 1221.89 655.052C1212.51 655.052 1204.6 657.837 1198.15 663.407ZM1193.51 706.567C1193.47 706.467 1193.45 706.414 1193.45 706.412C1193.45 706.411 1193.47 706.461 1193.51 706.567ZM1193.65 750.774C1193.64 750.811 1193.63 750.829 1193.63 750.828C1193.63 750.828 1193.64 750.809 1193.65 750.774ZM1425.92 838.855H1505.95L1534.97 732.883L1553.62 803.111L1553.63 803.123L1563.12 838.855H1644.02L1693.71 660.769H1719.66V618.995H1626.44V660.769H1649.3L1618.96 785.649H1617.2L1582.9 660.769H1603.13V618.995H1479.13V660.769H1497.16L1510.35 700.783L1487.48 785.209H1486.16L1455.82 660.769H1468.14V618.995H1351.17V660.769H1376.67L1425.92 838.855Z"
        fill="#1B1819" />
    <path
        d="M93.7514 221.255H68.7344V179.257H183.467V221.255H171.39L201.152 346.367H202.446L224.875 261.485L211.935 221.255H194.251V179.257H315.885V221.255H296.044L329.688 346.809H331.413L361.174 221.255H338.745V179.257H430.187V221.255H404.738L355.998 400.302H276.634L249.029 293.758L220.562 400.302H142.06L93.7514 221.255Z"
        fill="white" />
    <path
        d="M612.123 394.996C605.509 397.354 596.883 399.417 586.243 401.186C580.205 402.07 574.022 402.807 567.696 403.396C561.657 404.28 555.475 404.722 549.149 404.722C527.008 404.722 507.166 400.007 489.626 390.576C472.085 381.144 458.283 367.882 448.218 350.788C438.442 333.693 433.553 313.947 433.553 291.548C433.553 268.559 438.442 248.223 448.218 230.539C458.283 212.856 472.229 199.151 490.057 189.425C507.885 179.699 528.301 174.836 551.306 174.836C574.31 174.836 594.438 179.699 611.691 189.425C629.232 198.856 642.747 212.266 652.236 229.655C661.725 246.749 666.614 266.643 666.901 289.337C666.901 291.4 666.758 293.611 666.47 295.968C666.47 298.032 666.326 300.242 666.039 302.6H510.761C511.911 317.041 514.211 329.273 517.662 339.293C521.4 349.314 526.145 356.829 531.896 361.84C537.647 366.85 544.261 369.355 551.737 369.355C558.351 369.355 565.683 366.85 573.735 361.84C582.074 356.829 589.262 350.935 595.301 344.156C601.627 337.377 605.509 331.336 606.947 326.031V323.378H650.511V414.891H612.123V394.996ZM589.694 276.074C588.256 261.043 585.812 248.812 582.361 239.381C578.911 229.655 574.454 222.434 568.99 217.719C563.527 213.003 557.2 210.645 550.012 210.645C542.823 210.645 536.497 213.15 531.033 218.161C525.57 222.876 521.113 230.097 517.662 239.823C514.499 249.549 512.342 261.633 511.192 276.074H589.694Z"
        fill="white" />
    <path
        d="M840.44 404.722C826.637 404.722 814.56 402.07 804.208 396.765C793.857 391.165 785.086 382.913 777.897 372.008V400.302H707.16V132.837H672.654V90.8389H781.348V204.456C788.249 194.73 796.588 187.362 806.365 182.351C816.429 177.341 827.788 174.836 840.44 174.836C859.131 174.836 875.952 179.699 890.905 189.425C905.858 198.856 917.504 212.266 925.843 229.655C934.182 247.044 938.351 267.085 938.351 289.779C938.351 312.473 934.182 332.514 925.843 349.903C917.504 367.292 905.858 380.85 890.905 390.576C876.24 400.007 859.418 404.722 840.44 404.722ZM819.736 359.629C827.5 359.629 834.114 357.272 839.577 352.556C845.328 347.546 849.785 339.883 852.948 329.567C856.111 319.252 857.693 305.989 857.693 289.779C857.693 273.569 856.111 260.307 852.948 249.991C849.785 239.381 845.328 231.718 839.577 227.002C834.114 222.287 827.5 219.929 819.736 219.929C811.685 219.929 804.352 223.024 797.738 229.213C791.412 235.107 786.38 243.36 782.642 253.97C779.191 264.58 777.466 276.516 777.466 289.779C777.466 302.747 779.191 314.536 782.642 325.146C786.38 335.757 791.412 344.156 797.738 350.345C804.352 356.535 811.685 359.629 819.736 359.629Z"
        fill="white" />
    <path
        d="M976.092 278.285H1016.64V280.495C1016.64 291.695 1020.23 303.926 1027.42 317.189C1034.9 330.451 1044.39 341.651 1055.89 350.788C1067.68 359.629 1079.47 364.05 1091.26 364.05C1099.88 364.05 1107.07 361.692 1112.82 356.977C1118.57 351.966 1122.74 345.335 1125.33 337.083C1128.21 328.536 1129.65 318.81 1129.65 307.905C1129.65 296.116 1128.06 286.242 1124.9 278.285C1121.74 270.327 1117.42 264.433 1111.96 260.601C1106.78 256.475 1100.89 254.412 1094.28 254.412C1089.39 254.412 1084.36 255.444 1079.18 257.507C1074.29 259.57 1069.69 262.517 1065.38 266.348L1061.06 270.327L1040.36 242.034L1128.35 165.552H1052.87C1045.39 165.552 1039.64 165.994 1035.62 166.878C1031.88 167.762 1029 169.383 1026.99 171.741C1025.26 174.099 1024.4 177.783 1024.4 182.793V197.825H983.425V68.7344H1024.83V90.8389H1213.32V132.395L1109.8 227.887C1113.54 226.413 1117.71 225.381 1122.31 224.792C1126.91 223.908 1131.23 223.466 1135.25 223.466C1150.78 223.466 1164.73 227.002 1177.09 234.076C1189.74 240.855 1199.66 250.581 1206.85 263.254C1214.04 275.632 1217.64 289.927 1217.64 306.136C1217.64 324.999 1212.89 341.946 1203.4 356.977C1193.91 372.008 1180.25 383.944 1162.43 392.786C1144.6 401.333 1123.46 405.607 1099.02 405.607C1089.82 405.607 1080.62 404.575 1071.42 402.512C1062.21 400.449 1054.02 397.649 1046.83 394.112C1042.23 392.639 1037.34 391.165 1032.17 389.691C1027.28 387.923 1022.39 386.449 1017.5 385.271V413.122H976.092V278.285Z"
        fill="white" />
    <path
        d="M1241.3 446.721H1274.51V221.255H1241.3V179.257H1345.25V207.108C1352.44 196.498 1361.21 188.541 1371.56 183.236C1382.2 177.636 1394.42 174.836 1408.22 174.836C1426.91 174.836 1443.73 179.552 1458.69 188.983C1473.64 198.414 1485.29 211.824 1493.62 229.213C1501.96 246.602 1506.13 266.791 1506.13 289.779C1506.13 312.473 1501.82 332.514 1493.19 349.903C1484.85 367.292 1473.21 380.85 1458.26 390.576C1443.59 400.007 1426.91 404.722 1408.22 404.722C1395.28 404.722 1383.92 402.217 1374.15 397.207C1364.37 392.197 1356.03 384.681 1349.13 374.66V448.931H1403.05V488.719H1241.3V446.721ZM1387.52 359.629C1394.99 359.629 1401.61 357.272 1407.36 352.556C1413.11 347.546 1417.42 339.883 1420.3 329.567C1423.46 319.252 1425.04 305.989 1425.04 289.779C1425.04 273.569 1423.46 260.307 1420.3 249.991C1417.42 239.381 1413.11 231.718 1407.36 227.002C1401.61 222.287 1394.99 219.929 1387.52 219.929C1379.18 219.929 1371.7 223.024 1365.09 229.213C1358.76 235.107 1353.87 243.36 1350.42 253.97C1346.97 264.58 1345.25 276.516 1345.25 289.779C1345.25 302.747 1346.97 314.536 1350.42 325.146C1353.87 335.757 1358.76 344.156 1365.09 350.345C1371.7 356.535 1379.18 359.629 1387.52 359.629Z"
        fill="white" />
    <path
        d="M1523.51 358.303H1556.73V221.255H1523.51V179.257H1627.46V209.319C1631.78 198.709 1637.96 190.456 1646.01 184.562C1654.06 178.667 1663.26 175.72 1673.62 175.72C1677.93 175.72 1682.96 176.604 1688.71 178.373C1690.44 178.962 1692.16 179.552 1693.89 180.141C1695.61 180.73 1697.2 181.32 1698.63 181.909V161.131H1737.02V278.285H1699.93V272.096C1699.93 265.022 1697.63 257.801 1693.03 250.433C1688.71 242.77 1683.25 236.434 1676.64 231.423C1670.31 226.413 1664.56 223.908 1659.38 223.908C1653.92 223.908 1649.03 226.266 1644.72 230.981C1640.69 235.402 1637.38 241.886 1634.8 250.433C1632.5 258.686 1631.35 268.706 1631.35 280.495V358.303H1683.97V400.302H1523.51V358.303Z"
        fill="white" />
    <path
        d="M1764.87 358.303H1798.08V221.255H1764.87V179.257H1872.7V358.303H1905.92V400.302H1764.87V358.303ZM1781.26 70.9448H1880.47L1833.02 159.363H1828.71L1781.26 70.9448Z"
        fill="white" />
    <path
        d="M1943.78 221.255H1917.04V179.257H2055.5V221.255H2026.17L2068.87 338.409H2070.16L2113.29 221.255H2077.93V179.257H2185.33V221.255H2158.58L2088.71 400.302H2014.52L1943.78 221.255Z"
        fill="white" />
    <path
        d="M2252.6 404.722C2230.17 404.722 2212.77 399.27 2200.41 388.365C2188.04 377.166 2181.86 362.282 2181.86 343.714C2181.86 323.967 2189.48 308.642 2204.72 297.737C2219.96 286.832 2242.53 280.201 2272.44 277.843C2286.53 276.664 2297.6 274.748 2305.65 272.096C2313.99 269.443 2320.03 265.759 2323.76 261.043C2327.79 256.033 2329.8 249.549 2329.8 241.591C2329.8 230.687 2327.79 222.876 2323.76 218.161C2319.74 213.445 2313.7 211.087 2305.65 211.087C2297.6 211.087 2288.83 213.887 2279.34 219.487C2270.14 225.087 2262.23 232.013 2255.62 240.265C2249 248.517 2245.26 256.328 2244.4 263.696V267.233H2206.01V164.668H2243.97V183.678C2254.61 182.499 2264.53 181.025 2273.73 179.257C2279.19 177.783 2284.95 176.752 2290.98 176.162C2297.02 175.278 2303.35 174.836 2309.96 174.836C2339.29 174.836 2362.15 182.793 2378.54 198.709C2394.93 214.624 2403.13 236.876 2403.13 265.464V358.303H2430.73V400.302H2331.96V366.261C2323.62 379.229 2312.69 388.955 2299.18 395.439C2285.95 401.628 2270.42 404.722 2252.6 404.722ZM2284.08 363.166C2291.56 363.166 2298.89 360.661 2306.08 355.651C2313.56 350.345 2319.6 343.272 2324.2 334.43C2329.08 325.294 2331.53 314.978 2331.53 303.484V280.053C2327.79 284.179 2323.05 287.863 2317.29 291.105C2311.54 294.053 2304.5 296.263 2296.16 297.737C2284.37 299.8 2275.46 303.926 2269.42 310.115C2263.38 316.01 2260.36 324.115 2260.36 334.43C2260.36 342.977 2262.52 349.903 2266.83 355.208C2271.14 360.514 2276.89 363.166 2284.08 363.166Z"
        fill="white" />
    <path
        d="M2611.67 395.439C2605.34 397.796 2596.57 399.712 2585.35 401.186C2579.32 402.365 2573.28 403.249 2567.24 403.838C2561.2 404.428 2555.16 404.722 2549.12 404.722C2526.69 404.722 2506.57 399.859 2488.74 390.134C2470.91 380.113 2456.96 366.408 2446.9 349.019C2437.12 331.336 2432.23 311.589 2432.23 289.779C2432.23 267.675 2437.12 247.928 2446.9 230.539C2456.96 213.15 2470.91 199.593 2488.74 189.867C2506.57 179.846 2526.69 174.836 2549.12 174.836C2559.76 174.836 2570.69 175.867 2581.9 177.931C2592.26 179.699 2600.74 181.615 2607.35 183.678V164.668H2645.74L2645.31 273.422H2605.2V269.885C2604.33 262.222 2600.88 254.117 2594.84 245.57C2588.81 237.023 2581.76 229.802 2573.71 223.908C2565.66 218.013 2558.32 215.066 2551.71 215.066C2543.37 215.066 2536.18 217.866 2530.15 223.466C2524.11 229.066 2519.36 237.465 2515.91 248.665C2512.75 259.57 2511.17 273.274 2511.17 289.779C2511.17 305.989 2512.75 319.694 2515.91 330.893C2519.36 341.798 2524.11 350.051 2530.15 355.651C2536.18 361.25 2543.37 364.05 2551.71 364.05C2558.9 364.05 2566.81 361.25 2575.43 355.651C2584.06 349.756 2591.54 342.535 2597.86 333.988C2604.19 325.441 2608.07 317.336 2609.51 309.673V306.136H2649.62V414.891H2611.67V395.439Z"
        fill="white" />
    <path
        d="M2687.57 371.566H2725.53V390.576C2725.53 398.828 2728.41 407.67 2734.16 417.101C2739.91 426.827 2746.81 434.932 2754.86 441.416C2763.2 448.195 2770.68 451.584 2777.29 451.584C2780.74 451.584 2783.62 450.405 2785.92 448.047C2788.22 445.689 2789.37 442.595 2789.37 438.763V438.321C2789.37 435.669 2788.36 431.837 2786.35 426.827C2784.62 422.111 2780.31 412.385 2773.41 397.649C2771.68 393.818 2769.67 389.691 2767.37 385.271C2765.36 380.85 2763.2 376.134 2760.9 371.124L2688.87 221.255H2662.99V179.257H2799.72V221.255H2774.27L2810.07 307.463C2810.93 309.821 2811.94 312.473 2813.09 315.42C2814.24 318.073 2815.39 320.873 2816.54 323.82C2819.13 330.304 2821 335.462 2822.15 339.293C2822.72 336.641 2823.3 334.283 2823.87 332.22C2824.45 329.862 2825.17 327.357 2826.03 324.704L2860.1 221.255H2824.3V179.257H2931.27V221.255H2901.94L2852.77 351.672C2852.48 352.261 2852.34 352.851 2852.34 353.44C2852.34 353.735 2852.2 354.177 2851.91 354.766C2849.32 362.135 2847.45 368.913 2846.3 375.102C2845.44 381.292 2845.01 388.07 2845.01 395.439V402.512C2845.01 421.669 2842.28 438.027 2836.81 451.584C2831.64 465.141 2824.16 475.457 2814.38 482.53C2804.61 489.604 2793.25 493.14 2780.31 493.14C2773.98 493.14 2767.51 492.551 2760.9 491.372C2754.28 490.488 2748.1 489.162 2742.35 487.393C2736.03 485.625 2730.71 483.414 2726.39 480.762V501.098H2687.57V371.566Z"
        fill="white" />
    <path fill-rule="evenodd" clip-rule="evenodd"
        d="M93.7478 221.252H68.7308V179.253H183.464V221.252H171.387L201.148 346.363H202.442L224.871 261.482L211.932 221.252H194.247V179.253H315.882V221.252H296.04L329.684 346.805H331.409L361.171 221.252H338.742V179.253H430.183V221.252H404.735L355.995 400.298H276.631L249.026 293.754L220.558 400.298H142.056L93.7478 221.252ZM39.3255 283.392C16.0774 272.372 0 248.689 0 221.252V179.253C0 141.294 30.7718 110.522 68.7308 110.522H183.464C185.278 110.522 187.076 110.593 188.856 110.731C190.635 110.593 192.433 110.522 194.247 110.522H315.882C319.776 110.522 323.594 110.846 327.312 111.469C331.029 110.846 334.848 110.522 338.742 110.522H430.183C444.83 110.522 458.407 115.104 469.559 122.912C495.317 111.318 522.957 106.102 551.302 106.102C569.191 106.102 586.85 108.181 603.919 112.717V90.8353C603.919 52.8763 634.691 22.1045 672.65 22.1045H781.345C819.304 22.1045 850.075 52.8763 850.075 90.8353V106.369C872.696 107.631 894.486 113.375 914.691 123.834V68.7308C914.691 30.7718 945.462 0 983.421 0H1024.83C1044.79 0 1062.77 8.51187 1075.33 22.1045H1213.32C1251.28 22.1045 1282.05 52.8763 1282.05 90.8353V110.522H1345.24C1351.31 110.522 1357.19 111.308 1362.79 112.782C1377.68 108.149 1392.99 106.102 1408.22 106.102C1434.38 106.102 1459.67 111.831 1482.94 123.766C1494.31 115.439 1508.34 110.522 1523.51 110.522H1627.46C1631.88 110.522 1636.19 110.939 1640.38 111.734C1644.97 110.374 1649.65 109.308 1654.38 108.534C1666.34 98.4641 1681.77 92.3967 1698.63 92.3967H1715.96C1709.8 73.6489 1711.95 52.9216 1722.28 35.6547C1734.69 14.91 1757.09 2.21045 1781.26 2.21045H1880.46C1904.64 2.21045 1927.04 14.9099 1939.45 35.6546C1951.86 56.3993 1952.46 82.1387 1941.03 103.439L1937.23 110.522H2055.49C2059.31 110.522 2063.06 110.834 2066.71 111.433C2070.36 110.834 2074.1 110.522 2077.92 110.522H2163.67C2175.34 101.382 2190.04 95.9334 2206.01 95.9334H2243.97C2258.35 95.9334 2271.71 100.353 2282.74 107.909C2291.77 106.673 2300.87 106.102 2309.96 106.102C2351.88 106.102 2393.85 117.773 2426.42 149.396C2426.45 149.42 2426.47 149.444 2426.5 149.469C2435.38 142.029 2445.04 135.438 2455.44 129.734C2484.42 113.535 2516.21 106.102 2549.12 106.102C2556.05 106.102 2562.99 106.411 2569.92 107.013C2580.69 100.005 2593.54 95.9334 2607.35 95.9334H2645.74C2661.16 95.9334 2676.05 101.119 2688.08 110.522H2799.72C2803.91 110.522 2808.02 110.898 2812.01 111.619C2816 110.898 2820.1 110.522 2824.3 110.522H2931.27C2969.23 110.522 3000 141.294 3000 179.253V221.252C3000 252.532 2979.1 278.932 2950.51 287.253L2918.53 372.074C2917.74 374.961 2916.88 377.449 2916.1 379.448C2915.15 382.304 2914.55 384.543 2914.17 386.214C2913.92 388.585 2913.73 391.63 2913.73 395.435V402.508C2913.73 427.663 2910.22 453.018 2900.8 476.676C2891.81 499.953 2877.12 521.966 2854.67 538.212C2832.3 554.392 2806.61 561.868 2780.31 561.868C2773.68 561.868 2767.09 561.482 2760.56 560.742C2750.49 566.521 2738.83 569.825 2726.39 569.825H2687.57C2649.61 569.825 2618.84 539.053 2618.84 501.094V483.618H2611.66C2597.67 483.618 2584.65 479.435 2573.79 472.252C2565.58 473.049 2557.36 473.45 2549.12 473.45C2521.45 473.45 2494.53 468.302 2469.37 457.15C2458.36 464.647 2445.05 469.029 2430.73 469.029H2331.96C2323.96 469.029 2316.29 467.664 2309.16 465.156C2290.73 471.003 2271.62 473.45 2252.59 473.45C2219.5 473.45 2183.77 465.336 2154.94 439.909C2154.71 439.708 2154.49 439.506 2154.26 439.302C2152.32 437.544 2150.45 435.747 2148.66 433.912C2136.63 455.384 2113.8 469.029 2088.71 469.029H2014.52C1992.93 469.029 1973.02 458.934 1960.21 442.437C1947.64 458.618 1927.99 469.029 1905.91 469.029H1764.87C1749.75 469.029 1735.77 464.145 1724.42 455.87C1713.07 464.145 1699.09 469.029 1683.96 469.029H1523.51C1508.28 469.029 1494.21 464.076 1482.82 455.692C1479.18 457.578 1475.5 459.308 1471.77 460.885V488.716C1471.77 526.675 1441 557.447 1403.04 557.447H1241.29C1203.34 557.447 1172.56 526.675 1172.56 488.716V462.787C1149.08 470.896 1124.24 474.334 1099.02 474.334C1084.72 474.334 1070.56 472.736 1056.63 469.63C1045.52 477.335 1032.04 481.849 1017.5 481.849H976.089C953.056 481.849 932.669 470.519 920.198 453.129C895.515 467.028 868.378 473.45 840.436 473.45C825.311 473.45 809.958 471.494 794.97 466.891C789.51 468.287 783.789 469.029 777.894 469.029H707.156C702.774 469.029 698.488 468.619 694.333 467.835C682.437 477.692 667.164 483.618 650.507 483.618H612.119C597.915 483.618 584.717 479.309 573.761 471.927C565.589 472.953 557.376 473.45 549.146 473.45C516.937 473.45 485.7 466.499 457.074 451.107C443.511 443.815 431.191 434.999 420.229 424.756C410.179 451.191 384.736 469.029 355.995 469.029H276.631C266.725 469.029 257.216 466.911 248.594 463.055C239.971 466.911 230.461 469.029 220.558 469.029H142.056C110.993 469.029 83.7906 448.193 75.6986 418.202L39.3255 283.392ZM443.335 341.125C444.798 344.434 446.424 347.653 448.215 350.784C448.889 351.929 449.579 353.056 450.287 354.167C451.762 356.482 453.311 358.723 454.932 360.889C455.285 361.36 455.64 361.828 456 362.291C465.031 373.949 476.238 383.376 489.622 390.572C493.598 392.71 497.692 394.605 501.904 396.258C514.65 401.261 528.478 404.045 543.388 404.611C545.29 404.683 547.209 404.719 549.146 404.719C550.011 404.719 550.873 404.711 551.733 404.694C557.16 404.59 562.48 404.156 567.693 403.393C572.469 402.948 577.164 402.418 581.777 401.805C583.273 401.607 584.761 401.399 586.24 401.182C589.8 400.59 593.135 399.966 596.245 399.308C596.483 399.257 596.72 399.207 596.955 399.156C602.834 397.889 607.888 396.501 612.119 394.993V414.887H650.507V323.374H606.943V326.027C606.904 326.173 606.862 326.319 606.819 326.466C605.29 331.665 601.45 337.56 595.297 344.153C595.163 344.304 595.028 344.454 594.892 344.605C594.716 344.799 594.54 344.992 594.363 345.185C590.597 349.276 586.402 353.035 581.777 356.465C581.156 356.925 580.528 357.379 579.891 357.827C579.636 358.007 579.38 358.185 579.123 358.363C577.382 359.565 575.585 360.722 573.731 361.836C570.46 363.872 567.308 365.494 564.274 366.702C563.651 366.95 563.034 367.181 562.422 367.394C558.672 368.699 555.109 369.352 551.733 369.352C550.859 369.352 549.996 369.317 549.146 369.249C542.722 368.731 536.971 366.261 531.892 361.836C527.249 357.791 523.262 352.113 519.931 344.802C519.136 343.057 518.379 341.22 517.659 339.29C517.598 339.115 517.539 338.939 517.479 338.763C515.95 334.235 514.652 329.263 513.585 323.846C512.582 318.751 511.783 313.262 511.189 307.38C511.03 305.814 510.887 304.219 510.757 302.596H666.035C666.323 300.238 666.466 298.028 666.466 295.965C666.754 293.607 666.898 291.397 666.898 289.333C666.834 284.325 666.547 279.453 666.035 274.717C665.322 268.114 664.173 261.775 662.588 255.702C660.577 247.996 657.864 240.717 654.451 233.865C653.742 232.442 653.002 231.038 652.233 229.651C651.622 228.532 650.995 227.429 650.35 226.343C648.497 223.217 646.505 220.228 644.375 217.375C644.24 217.194 644.105 217.015 643.97 216.835C642.214 214.517 640.366 212.289 638.425 210.153C630.901 201.871 621.989 194.96 611.688 189.421C607.537 187.082 603.22 185.023 598.737 183.246C584.584 177.637 568.772 174.832 551.302 174.832C550.87 174.832 550.438 174.834 550.008 174.837C532.302 174.979 516.142 178.025 501.529 183.978C501.082 184.159 500.637 184.344 500.193 184.531C499.765 184.712 499.339 184.895 498.914 185.081C495.893 186.4 492.939 187.847 490.054 189.421C476.653 196.732 465.445 206.29 456.431 218.097C456.064 218.578 455.7 219.063 455.34 219.552C454.926 220.114 454.517 220.68 454.113 221.252C452.461 223.587 450.89 226.004 449.399 228.503C448.998 229.175 448.604 229.852 448.215 230.536C447.807 231.273 447.408 232.015 447.017 232.762C438.263 249.492 433.776 268.539 433.558 289.901C433.552 290.447 433.55 290.995 433.55 291.544C433.55 309.841 436.811 326.368 443.335 341.125ZM513.544 256.884C512.526 262.735 511.741 269.131 511.189 276.071H589.69C589.045 269.33 588.198 263.152 587.148 257.537C587.022 256.861 586.893 256.193 586.76 255.533C585.777 250.628 584.632 246.175 583.324 242.173C583.156 241.657 582.984 241.149 582.81 240.648C582.661 240.219 582.51 239.795 582.358 239.377C581.671 237.441 580.944 235.603 580.177 233.865C577.092 226.875 573.362 221.492 568.987 217.715C563.853 213.284 557.958 210.935 551.302 210.667C550.874 210.65 550.443 210.642 550.008 210.642C542.819 210.642 536.493 213.147 531.03 218.157C526.747 221.854 523.082 227.09 520.036 233.865C519.197 235.733 518.404 237.718 517.659 239.82C517.645 239.862 517.631 239.904 517.617 239.947C515.992 244.967 514.635 250.613 513.544 256.884ZM707.156 400.298H777.894V372.004C785.083 382.909 793.853 391.161 804.205 396.761C806.841 398.112 809.589 399.291 812.449 400.298C814.801 401.126 817.229 401.838 819.733 402.434C826.138 403.957 833.04 404.719 840.436 404.719C842.481 404.719 844.5 404.664 846.495 404.555C857.885 403.93 868.46 401.52 878.217 397.324C878.305 397.287 878.393 397.249 878.48 397.211C882.78 395.345 886.92 393.133 890.902 390.572C896.582 386.878 901.784 382.63 906.51 377.83C906.794 377.541 907.077 377.25 907.358 376.957C914.698 369.305 920.859 360.286 925.839 349.9C934.178 332.511 938.348 312.47 938.348 289.776C938.348 285.865 938.224 282.034 937.976 278.281C937.123 265.344 934.798 253.343 931.003 242.278C929.651 238.336 928.112 234.513 926.387 230.809C926.206 230.422 926.024 230.036 925.839 229.651C923.103 223.946 920.011 218.668 916.562 213.819C913.647 209.72 910.477 205.926 907.052 202.439C902.183 197.481 896.8 193.141 890.902 189.421C886.753 186.723 882.461 184.399 878.025 182.449C877.553 182.242 877.079 182.038 876.603 181.839C868.262 178.347 859.419 176.16 850.075 175.279C846.92 174.981 843.707 174.832 840.436 174.832C833.1 174.832 826.199 175.675 819.733 177.359C815.047 178.58 810.59 180.243 806.362 182.348C796.585 187.358 788.246 194.726 781.345 204.452V90.8353H672.65V132.834H707.156V400.298ZM778.454 273.127C777.793 278.423 777.463 283.972 777.463 289.776C777.463 294.425 777.684 298.922 778.128 303.268C778.922 311.045 780.425 318.336 782.639 325.143C786.377 335.753 791.409 344.153 797.735 350.342C799.669 352.152 801.665 353.697 803.722 354.978C808.699 358.076 814.036 359.626 819.733 359.626C820.959 359.626 822.157 359.567 823.326 359.449C823.708 359.411 824.086 359.366 824.461 359.315C830.217 358.534 835.255 356.28 839.574 352.552C839.865 352.299 840.152 352.039 840.436 351.772C844.931 347.55 848.598 341.633 851.437 334.019C851.969 332.593 852.471 331.108 852.945 329.564C856.108 319.248 857.69 305.986 857.69 289.776C857.69 273.566 856.108 260.303 852.945 249.988C852.532 248.603 852.097 247.268 851.64 245.984C848.773 237.925 845.039 231.843 840.436 227.737C840.152 227.483 839.865 227.237 839.574 226.999C835.617 223.584 831.058 221.406 825.895 220.464C825.693 220.427 825.489 220.392 825.285 220.359C823.504 220.07 821.654 219.925 819.733 219.925C815.306 219.925 811.097 220.861 807.105 222.731C803.836 224.263 800.713 226.423 797.735 229.209C791.409 235.104 786.377 243.356 782.639 253.966C780.698 259.934 779.303 266.321 778.454 273.127ZM848.077 275.284C848.078 275.284 848.067 275.306 848.044 275.349C848.065 275.304 848.077 275.283 848.077 275.284ZM983.421 197.821H1024.4V182.79C1024.4 177.78 1025.26 174.095 1026.99 171.738C1029 169.38 1031.87 167.759 1035.61 166.875C1039.51 166.019 1045.02 165.577 1052.15 165.55C1052.39 165.549 1052.63 165.548 1052.87 165.548H1128.35L1040.36 242.03L1061.06 270.324L1065.37 266.345C1069.24 262.91 1073.34 260.186 1077.67 258.173C1078.17 257.94 1078.67 257.717 1079.18 257.503C1080.07 257.146 1080.96 256.82 1081.85 256.525C1086.09 255.114 1090.23 254.408 1094.27 254.408C1100.89 254.408 1106.78 256.472 1111.96 260.598C1114.04 262.056 1115.95 263.814 1117.7 265.871C1120.54 269.217 1122.94 273.353 1124.9 278.281C1126.72 282.866 1128.02 288.086 1128.79 293.942C1129.36 298.251 1129.64 302.904 1129.64 307.901C1129.64 317.209 1128.59 325.658 1126.5 333.248C1126.14 334.551 1125.75 335.828 1125.33 337.079C1122.74 345.332 1118.57 351.963 1112.82 356.973C1108.89 360.195 1104.29 362.317 1099.02 363.337C1096.57 363.81 1093.99 364.047 1091.25 364.047C1087.61 364.047 1083.96 363.624 1080.32 362.779C1075.27 361.608 1070.22 359.626 1065.17 356.832C1063.38 355.844 1061.6 354.756 1059.81 353.566C1058.5 352.693 1057.19 351.766 1055.88 350.784C1053.34 348.761 1050.89 346.637 1048.54 344.411C1047.62 343.536 1046.71 342.645 1045.81 341.738C1045.48 341.4 1045.15 341.06 1044.82 340.717C1043.32 339.154 1041.86 337.545 1040.45 335.891C1037.46 332.396 1034.67 328.698 1032.08 324.798C1030.46 322.365 1028.92 319.853 1027.46 317.262C1027.45 317.236 1027.43 317.211 1027.42 317.185C1024.27 311.373 1021.81 305.759 1020.04 300.342C1017.77 293.4 1016.63 286.783 1016.63 280.492V278.281H976.089V413.119H1017.5V385.267C1020.5 385.991 1023.5 386.826 1026.5 387.773C1026.94 387.912 1027.39 388.053 1027.83 388.197C1029.27 388.668 1030.72 389.165 1032.16 389.688C1036.59 390.949 1040.81 392.21 1044.82 393.472C1045.49 393.684 1046.16 393.896 1046.83 394.109C1054.02 397.645 1062.21 400.445 1071.41 402.508C1076.35 403.616 1081.29 404.426 1086.23 404.939C1087.9 405.113 1089.58 405.253 1091.25 405.358C1093.84 405.521 1096.43 405.603 1099.02 405.603C1116.81 405.603 1132.84 403.34 1147.13 398.813C1147.69 398.635 1148.24 398.454 1148.8 398.27C1153.54 396.695 1158.08 394.866 1162.42 392.782C1168.9 389.568 1174.84 385.944 1180.22 381.911C1189.63 374.852 1197.36 366.539 1203.4 356.973C1204.23 355.66 1205.02 354.333 1205.78 352.991C1213.68 338.967 1217.63 323.348 1217.63 306.133C1217.63 298.651 1216.87 291.577 1215.33 284.911C1213.55 277.135 1210.72 269.915 1206.85 263.25C1206.5 262.631 1206.14 262.019 1205.78 261.414C1202.05 255.225 1197.64 249.772 1192.55 245.055C1188.89 241.658 1184.87 238.643 1180.5 236.01C1179.38 235.339 1178.25 234.693 1177.09 234.072C1175.88 233.381 1174.65 232.723 1173.42 232.099C1169.72 230.239 1165.89 228.68 1161.93 227.421C1155.45 225.361 1148.61 224.105 1141.41 223.653C1140.27 223.582 1139.13 223.53 1137.97 223.499C1137.07 223.474 1136.16 223.462 1135.25 223.462C1133.04 223.462 1130.73 223.596 1128.35 223.863C1126.39 224.082 1124.38 224.39 1122.31 224.788C1119.4 225.161 1116.67 225.709 1114.11 226.434C1112.62 226.857 1111.18 227.34 1109.8 227.883L1213.32 132.392V90.8353H1024.83V68.7308H983.421V197.821ZM1241.29 221.252H1274.51V446.717H1241.29V488.716H1403.04V448.928H1349.13V374.657C1350.46 376.598 1351.85 378.444 1353.3 380.197C1359.31 387.495 1366.26 393.163 1374.14 397.203C1378.31 399.34 1382.77 401.021 1387.51 402.247C1392.39 403.505 1397.56 404.283 1403.04 404.581C1404.74 404.673 1406.46 404.719 1408.22 404.719C1411.49 404.719 1414.71 404.574 1417.86 404.285C1427.28 403.419 1436.15 401.26 1444.46 397.807C1445.03 397.572 1445.59 397.331 1446.15 397.084C1446.59 396.889 1447.04 396.691 1447.47 396.488C1449.96 395.343 1452.4 394.079 1454.78 392.695C1455.95 392.016 1457.11 391.309 1458.25 390.572C1464.25 386.669 1469.72 382.148 1474.66 377.011C1479.96 371.487 1484.66 365.25 1488.73 358.299C1490.31 355.607 1491.8 352.807 1493.19 349.9C1501.56 333.027 1505.87 313.656 1506.12 291.788C1506.13 291.12 1506.13 290.449 1506.13 289.776C1506.13 289.102 1506.13 288.431 1506.12 287.763C1505.88 265.607 1501.72 246.089 1493.62 229.209C1492.3 226.457 1490.9 223.805 1489.41 221.252C1485 213.667 1479.86 206.963 1473.98 201.138C1469.34 196.536 1464.24 192.483 1458.68 188.979C1457.4 188.167 1456.1 187.39 1454.78 186.648C1451.45 184.767 1448.03 183.111 1444.52 181.68C1434.95 177.78 1424.73 175.546 1413.84 174.978C1411.99 174.881 1410.11 174.832 1408.22 174.832C1400.87 174.832 1393.97 175.626 1387.51 177.214C1385.18 177.789 1382.9 178.469 1380.68 179.253C1377.52 180.368 1374.48 181.695 1371.56 183.232C1361.2 188.537 1352.43 196.495 1345.24 207.105V179.253H1241.29V221.252ZM1346.22 305.982C1347.07 312.747 1348.47 319.134 1350.42 325.143C1353.87 335.753 1358.76 344.153 1365.09 350.342C1368.15 353.21 1371.4 355.413 1374.83 356.952C1378.81 358.734 1383.04 359.626 1387.51 359.626C1389.64 359.626 1391.71 359.434 1393.7 359.051C1398.69 358.091 1403.24 355.924 1407.36 352.552C1407.65 352.299 1407.93 352.038 1408.22 351.771C1412.71 347.54 1416.28 341.605 1418.93 333.966C1419.41 332.556 1419.87 331.089 1420.3 329.564C1423.46 319.248 1425.04 305.986 1425.04 289.776C1425.04 273.566 1423.46 260.303 1420.3 249.988C1419.87 248.419 1419.41 246.915 1418.93 245.475C1416.28 237.669 1412.71 231.757 1408.22 227.738C1407.93 227.484 1407.65 227.238 1407.36 226.999C1402.5 223.021 1397.04 220.721 1390.96 220.098C1390.78 220.08 1390.6 220.063 1390.42 220.048C1389.47 219.966 1388.5 219.925 1387.51 219.925C1381.6 219.925 1376.11 221.484 1371.07 224.6C1369 225.875 1367.01 227.412 1365.09 229.209C1358.76 235.104 1353.87 243.356 1350.42 253.966C1348.22 260.719 1346.73 268.01 1345.93 275.837C1345.47 280.308 1345.24 284.954 1345.24 289.776C1345.24 295.4 1345.57 300.802 1346.22 305.982ZM1523.51 400.298H1683.96V358.299H1631.34V280.492C1631.34 279.748 1631.35 279.011 1631.36 278.281C1631.36 278.169 1631.36 278.056 1631.36 277.944C1631.37 277.281 1631.38 276.625 1631.4 275.975C1631.44 274.657 1631.49 273.362 1631.55 272.092C1631.98 263.868 1633.06 256.647 1634.79 250.43C1637.38 241.883 1640.69 235.399 1644.71 230.978C1649.03 226.262 1653.92 223.904 1659.38 223.904C1662.18 223.904 1665.15 224.638 1668.29 226.105C1669.42 226.636 1670.58 227.262 1671.76 227.985C1672.23 228.272 1672.7 228.575 1673.17 228.892C1673.32 228.99 1673.47 229.088 1673.61 229.189C1674.54 229.82 1675.47 230.509 1676.42 231.254C1676.49 231.309 1676.56 231.364 1676.63 231.42C1677.07 231.748 1677.5 232.083 1677.92 232.423C1680.88 234.799 1683.6 237.455 1686.08 240.389C1686.64 241.045 1687.18 241.715 1687.71 242.399C1689.64 244.885 1691.4 247.554 1693.01 250.407C1693.01 250.415 1693.02 250.422 1693.02 250.43C1696.85 256.566 1699.09 262.6 1699.73 268.532C1699.79 269.066 1699.83 269.6 1699.87 270.133C1699.89 270.539 1699.91 270.945 1699.92 271.351C1699.92 271.598 1699.92 271.845 1699.92 272.092V278.281H1737.02V161.128H1698.63V181.906C1697.86 181.589 1697.05 181.273 1696.19 180.957C1696.17 180.95 1696.16 180.944 1696.14 180.937C1695.42 180.671 1694.67 180.404 1693.89 180.137L1688.71 178.369C1682.96 176.601 1677.93 175.716 1673.61 175.716C1671.8 175.716 1670.03 175.807 1668.29 175.987C1665.21 176.306 1662.24 176.907 1659.38 177.791C1658.01 178.214 1656.67 178.701 1655.35 179.253C1653.54 180.014 1651.77 180.899 1650.05 181.906C1648.67 182.711 1647.32 183.595 1646.01 184.558C1637.96 190.453 1631.77 198.705 1627.46 209.315V179.253H1523.51V221.252H1556.72V358.299H1523.51V400.298ZM1764.87 221.252H1798.08V358.299H1764.87V400.298H1905.91V358.299H1872.7V179.253H1764.87V221.252ZM1828.71 159.359H1833.02L1880.46 70.9412H1781.26L1828.71 159.359ZM1917.04 179.253V221.252H1943.78L2014.52 400.298H2088.71L2158.58 221.252H2185.32V179.253H2077.92V221.252H2113.29L2070.16 338.405H2068.86L2026.16 221.252H2055.49V179.253H1917.04ZM2206.01 164.664V267.229H2244.4V263.692C2244.83 260.004 2245.98 256.205 2247.85 252.295C2248.73 250.467 2249.76 248.615 2250.95 246.739C2252.3 244.611 2253.86 242.452 2255.61 240.262C2256.42 239.254 2257.25 238.265 2258.09 237.297C2259.5 235.688 2260.96 234.133 2262.47 232.633C2264.31 230.814 2266.22 229.075 2268.21 227.416C2268.29 227.353 2268.37 227.29 2268.44 227.226C2270.46 225.557 2272.56 223.97 2274.74 222.464C2274.8 222.42 2274.87 222.376 2274.93 222.332C2275.05 222.251 2275.17 222.171 2275.29 222.09C2276.61 221.191 2277.96 220.323 2279.34 219.483C2279.98 219.105 2280.61 218.74 2281.25 218.387C2282.14 217.891 2283.02 217.421 2283.9 216.976C2284.94 216.448 2285.98 215.956 2287 215.498C2287.19 215.414 2287.38 215.332 2287.56 215.25C2289.94 214.215 2292.27 213.373 2294.55 212.724C2295.13 212.56 2295.7 212.408 2296.27 212.269C2299.5 211.479 2302.62 211.084 2305.65 211.084C2307.15 211.084 2308.59 211.166 2309.96 211.332C2312.37 211.623 2314.55 212.171 2316.52 212.976C2319.41 214.154 2321.82 215.881 2323.76 218.157C2327.79 222.873 2329.8 230.683 2329.8 241.588C2329.8 243.503 2329.68 245.333 2329.45 247.078C2328.71 252.582 2326.82 257.235 2323.76 261.04C2322.02 263.231 2319.79 265.199 2317.06 266.945C2315.84 267.725 2314.52 268.461 2313.1 269.153C2312.21 269.585 2311.29 270.001 2310.32 270.399C2310.07 270.502 2309.82 270.603 2309.56 270.704C2309.16 270.865 2308.74 271.022 2308.32 271.177C2307.98 271.303 2307.63 271.428 2307.27 271.551C2306.99 271.648 2306.71 271.743 2306.43 271.837C2306.17 271.923 2305.91 272.008 2305.65 272.092C2303.33 272.854 2300.77 273.556 2297.95 274.197C2296.15 274.607 2294.25 274.993 2292.24 275.353C2292.23 275.355 2292.22 275.358 2292.2 275.36C2291.14 275.551 2290.05 275.735 2288.92 275.911C2283.99 276.69 2278.49 277.333 2272.43 277.839C2262.24 278.643 2252.89 279.944 2244.4 281.742C2243.66 281.899 2242.92 282.06 2242.19 282.225C2241.82 282.308 2241.46 282.392 2241.09 282.477C2226.88 285.793 2215.18 290.577 2206.01 296.83C2205.57 297.127 2205.14 297.429 2204.72 297.733C2203.63 298.509 2202.58 299.308 2201.58 300.129C2199.24 302.031 2197.11 304.054 2195.19 306.197C2188.72 313.419 2184.61 322.006 2182.84 331.958C2182.18 335.684 2181.85 339.602 2181.85 343.711C2181.85 345.865 2181.94 347.969 2182.1 350.024C2183.37 365.682 2189.47 378.461 2200.4 388.362C2203.73 391.293 2207.41 393.83 2211.46 395.974C2212.52 396.534 2213.61 397.067 2214.72 397.574C2225.14 402.337 2237.77 404.719 2252.59 404.719C2256.27 404.719 2259.86 404.587 2263.34 404.323C2270.69 403.767 2277.6 402.624 2284.08 400.894C2284.8 400.703 2285.51 400.504 2286.21 400.298C2290.76 398.974 2295.08 397.353 2299.18 395.435C2307.93 391.235 2315.6 385.674 2322.18 378.754C2322.24 378.695 2322.29 378.637 2322.35 378.578C2325.86 374.861 2329.07 370.754 2331.96 366.257V400.298H2430.73V358.299H2403.13V265.461C2403.13 252.577 2401.46 240.979 2398.13 230.669C2394.83 220.433 2389.88 211.465 2383.29 203.766C2381.79 202.013 2380.21 200.326 2378.54 198.705C2373.42 193.734 2367.67 189.539 2361.29 186.121C2347.88 178.938 2331.68 175.183 2312.7 174.856C2311.79 174.84 2310.88 174.832 2309.96 174.832C2308.51 174.832 2307.07 174.854 2305.65 174.896C2300.58 175.048 2295.69 175.468 2290.98 176.159C2285.31 176.712 2279.9 177.654 2274.74 178.986C2274.4 179.073 2274.06 179.163 2273.73 179.253C2268.46 180.266 2262.96 181.182 2257.22 182.001C2257 182.031 2256.79 182.061 2256.58 182.091C2255.74 182.209 2254.9 182.325 2254.05 182.439C2250.77 182.882 2247.4 183.293 2243.97 183.674V164.664H2206.01ZM2432.23 289.585C2432.24 281.204 2432.96 273.163 2434.37 265.461C2436.68 252.919 2440.86 241.278 2446.9 230.536C2448.6 227.595 2450.41 224.764 2452.33 222.043C2455.66 217.334 2459.33 212.952 2463.32 208.899C2470.67 201.444 2479.14 195.099 2488.73 189.863C2491.01 188.587 2493.31 187.392 2495.66 186.278C2508.81 180.035 2523.13 176.346 2538.62 175.211C2542.06 174.958 2545.56 174.832 2549.12 174.832C2549.98 174.832 2550.84 174.839 2551.71 174.853C2559.95 174.981 2568.37 175.724 2576.96 177.081C2578.6 177.341 2580.25 177.623 2581.9 177.927C2586.37 178.69 2590.48 179.48 2594.25 180.297C2597.77 181.061 2600.99 181.848 2603.9 182.659C2605.1 182.993 2606.25 183.332 2607.35 183.674V164.664H2645.74L2645.31 273.418H2605.19V269.882C2604.55 264.131 2602.44 258.131 2598.88 251.882C2597.69 249.804 2596.35 247.699 2594.84 245.567C2593.49 243.653 2592.09 241.806 2590.63 240.026C2590.43 239.771 2590.22 239.518 2590.01 239.267C2585.97 234.423 2581.56 230.082 2576.76 226.244C2575.86 225.52 2574.94 224.815 2574.01 224.127C2573.91 224.053 2573.81 223.978 2573.71 223.904C2573.63 223.848 2573.55 223.791 2573.47 223.735C2565.51 217.953 2558.26 215.062 2551.71 215.062C2550.83 215.062 2549.97 215.093 2549.12 215.155C2541.87 215.681 2535.55 218.45 2530.14 223.462C2525.32 227.93 2521.33 234.181 2518.16 242.214C2518.04 242.52 2517.92 242.829 2517.8 243.141C2517.13 244.899 2516.5 246.739 2515.91 248.661C2515.3 250.764 2514.75 252.97 2514.25 255.28C2512.19 264.954 2511.16 276.453 2511.16 289.776C2511.16 303.02 2512.22 314.592 2514.33 324.492C2514.8 326.708 2515.33 328.841 2515.91 330.89C2516.54 332.885 2517.21 334.792 2517.93 336.609C2518.05 336.918 2518.18 337.223 2518.3 337.527C2521.45 345.205 2525.4 351.246 2530.14 355.647C2535.55 360.659 2541.87 363.428 2549.12 363.954C2549.97 364.016 2550.83 364.047 2551.71 364.047C2555.34 364.047 2559.15 363.333 2563.14 361.907C2567.06 360.507 2571.16 358.42 2575.43 355.647C2575.74 355.439 2576.04 355.23 2576.34 355.019C2577.25 354.381 2578.15 353.729 2579.03 353.062C2579.66 352.588 2580.28 352.107 2580.89 351.619C2584.71 348.574 2588.28 345.235 2591.6 341.602C2591.8 341.377 2592.01 341.152 2592.21 340.925C2594.19 338.718 2596.07 336.404 2597.86 333.985C2599.52 331.739 2601.02 329.523 2602.34 327.338C2603.4 325.593 2604.35 323.867 2605.19 322.161C2607.31 317.874 2608.75 313.71 2609.51 309.67V306.133H2649.62V414.887H2611.66V395.435C2609.47 396.254 2606.97 397.019 2604.19 397.732C2603.78 397.835 2603.37 397.938 2602.95 398.04C2597.97 399.247 2592.1 400.295 2585.35 401.182C2583.86 401.473 2582.38 401.745 2580.89 402C2576.34 402.779 2571.79 403.391 2567.24 403.835C2562.06 404.34 2556.88 404.629 2551.71 404.701C2550.85 404.713 2549.98 404.719 2549.12 404.719C2547.04 404.719 2544.97 404.677 2542.93 404.593C2527.28 403.951 2512.79 400.846 2499.46 395.28C2498.01 394.674 2496.58 394.04 2495.15 393.376C2492.98 392.362 2490.84 391.28 2488.73 390.13C2474.21 381.965 2462.26 371.355 2452.89 358.299C2452.73 358.077 2452.57 357.853 2452.41 357.629C2450.46 354.866 2448.62 351.995 2446.9 349.016C2437.12 331.332 2432.23 311.585 2432.23 289.776C2432.23 289.712 2432.23 289.648 2432.23 289.585ZM2687.57 501.094H2726.39V480.758C2730.7 483.411 2736.02 485.621 2742.35 487.39C2746.75 488.742 2751.4 489.836 2756.3 490.671C2757.81 490.928 2759.34 491.161 2760.9 491.368C2766.46 492.36 2771.92 492.935 2777.29 493.092C2778.3 493.122 2779.3 493.137 2780.31 493.137C2785.5 493.137 2790.44 492.567 2795.12 491.428C2802.11 489.729 2808.53 486.761 2814.38 482.527C2815.69 481.582 2816.95 480.58 2818.17 479.519C2826.11 472.64 2832.32 463.327 2836.81 451.58C2838.43 447.554 2839.81 443.28 2840.95 438.76C2840.99 438.613 2841.03 438.465 2841.06 438.318C2843.5 428.493 2844.81 417.51 2844.98 405.369C2844.99 404.953 2844.99 404.535 2845 404.117C2845 403.831 2845 403.545 2845 403.258C2845 403.008 2845 402.759 2845 402.508V395.435C2845 393.304 2845.04 391.222 2845.11 389.189C2845.29 384.194 2845.68 379.498 2846.3 375.099C2847.45 368.91 2849.32 362.131 2851.91 354.763C2852.19 354.173 2852.34 353.731 2852.34 353.436C2852.34 352.847 2852.48 352.258 2852.77 351.668L2876.46 288.817L2876.48 288.787L2901.94 221.252H2931.27V179.253H2824.3V221.252H2860.1L2826.03 324.701C2825.16 327.353 2824.44 329.858 2823.87 332.216C2823.47 333.66 2823.06 335.248 2822.66 336.981C2822.49 337.724 2822.32 338.494 2822.14 339.29C2821.86 338.357 2821.54 337.346 2821.18 336.257C2820.66 334.702 2820.05 332.989 2819.35 331.115C2819.33 331.057 2819.31 330.998 2819.29 330.94C2818.49 328.776 2817.57 326.402 2816.54 323.816C2816.2 322.962 2815.87 322.119 2815.54 321.289C2815.53 321.272 2815.52 321.256 2815.52 321.239C2814.71 319.225 2813.9 317.284 2813.09 315.417C2811.94 312.47 2810.93 309.817 2810.07 307.459L2774.27 221.252H2799.72V179.253H2662.98V221.252H2688.86L2760.9 371.12C2760.96 371.268 2761.03 371.415 2761.1 371.562C2763.08 375.888 2764.96 379.993 2766.73 383.876C2766.94 384.343 2767.16 384.807 2767.36 385.267C2768.31 387.085 2769.21 388.854 2770.06 390.572C2770.66 391.789 2771.24 392.981 2771.79 394.148C2771.87 394.33 2771.96 394.511 2772.04 394.692C2772.52 395.695 2772.97 396.68 2773.4 397.645C2774.41 399.802 2775.37 401.851 2776.27 403.792C2776.61 404.544 2776.95 405.279 2777.29 405.998C2778.07 407.695 2778.8 409.303 2779.49 410.822C2779.52 410.883 2779.55 410.944 2779.58 411.005C2782.95 418.447 2785.21 423.72 2786.34 426.823C2787.1 428.713 2787.72 430.434 2788.19 431.988C2788.31 432.385 2788.42 432.772 2788.53 433.147C2789.08 435.197 2789.36 436.921 2789.36 438.318V438.76C2789.36 441.414 2788.81 443.714 2787.71 445.661C2787.22 446.525 2786.62 447.319 2785.91 448.044C2784.32 449.677 2782.45 450.744 2780.31 451.246C2779.35 451.469 2778.35 451.58 2777.29 451.58C2774.45 451.58 2771.47 450.959 2768.32 449.718C2767.74 449.489 2767.15 449.239 2766.56 448.968C2763.31 447.473 2759.88 445.336 2756.3 442.558C2756.26 442.524 2756.21 442.489 2756.17 442.454C2755.82 442.188 2755.48 441.916 2755.14 441.639C2755.04 441.564 2754.95 441.488 2754.86 441.412C2754.33 440.984 2753.8 440.549 2753.28 440.107C2752.95 439.832 2752.63 439.555 2752.31 439.275C2752.22 439.197 2752.13 439.119 2752.04 439.04C2751.94 438.947 2751.83 438.854 2751.73 438.76C2751.56 438.613 2751.4 438.466 2751.24 438.318C2744.72 432.407 2739.02 425.333 2734.15 417.097C2733.98 416.819 2733.82 416.54 2733.65 416.263C2733.54 416.074 2733.43 415.885 2733.32 415.697C2732.63 414.525 2732 413.363 2731.4 412.211C2730.81 411.049 2730.25 409.898 2729.75 408.755C2729.27 407.671 2728.83 406.595 2728.43 405.527C2728.16 404.795 2727.9 404.066 2727.67 403.342C2726.24 398.939 2725.53 394.682 2725.53 390.572V371.562H2687.57V501.094ZM2327.8 326.27C2327.1 328.244 2326.3 330.169 2325.4 332.048C2325.26 332.33 2325.13 332.612 2324.99 332.892C2324.73 333.407 2324.46 333.919 2324.19 334.427C2323.35 336.041 2322.47 337.596 2321.53 339.092C2318.65 343.69 2315.33 347.732 2311.55 351.217C2311.19 351.542 2310.84 351.862 2310.48 352.177C2310.42 352.228 2310.36 352.28 2310.3 352.331C2309.03 353.429 2307.72 354.468 2306.36 355.448C2306.33 355.469 2306.3 355.49 2306.27 355.511C2306.2 355.557 2306.14 355.602 2306.08 355.647C2298.89 360.657 2291.56 363.163 2284.08 363.163C2284.08 363.163 2284.08 363.163 2284.08 363.163C2283.95 363.163 2283.82 363.162 2283.69 363.16C2276.68 363.066 2271.06 360.414 2266.83 355.205C2265.13 353.119 2263.77 350.782 2262.74 348.195C2261.27 344.501 2260.48 340.296 2260.37 335.58C2260.36 335.199 2260.36 334.815 2260.36 334.427C2260.36 334.317 2260.36 334.207 2260.36 334.097C2260.42 323.938 2263.44 315.943 2269.41 310.112C2270.24 309.267 2271.12 308.46 2272.05 307.692C2272.15 307.61 2272.25 307.529 2272.35 307.449C2272.38 307.425 2272.41 307.401 2272.44 307.378C2272.6 307.249 2272.76 307.121 2272.92 306.995C2273.48 306.568 2274.05 306.154 2274.63 305.752C2274.68 305.723 2274.72 305.695 2274.76 305.666C2275.91 304.89 2277.12 304.161 2278.4 303.48C2280.17 302.541 2282.06 301.693 2284.08 300.935C2287.7 299.576 2291.72 298.509 2296.16 297.733C2297.2 297.549 2298.22 297.354 2299.22 297.147C2302.05 296.561 2304.73 295.883 2307.24 295.112C2309.04 294.559 2310.76 293.958 2312.4 293.31C2312.47 293.282 2312.54 293.254 2312.61 293.225C2314.25 292.566 2315.82 291.858 2317.29 291.102C2323.04 287.86 2327.79 284.176 2331.53 280.05V303.48C2331.53 307.403 2331.24 311.189 2330.67 314.837C2330.58 315.435 2330.48 316.029 2330.37 316.619C2329.76 319.954 2328.9 323.171 2327.8 326.27Z"
        fill="#1B1819" />
    <path
        d="M121.914 623.382C121.914 621.976 123.054 620.836 124.46 620.836H698.965C700.371 620.836 701.511 621.976 701.511 623.382V839.335C701.511 840.741 700.371 841.881 698.965 841.881H124.46C123.054 841.881 121.914 840.741 121.914 839.335V623.382Z"
        fill="white" />
    <path fill-rule="evenodd" clip-rule="evenodd"
        d="M124.464 552.102H698.969C738.335 552.102 770.246 584.014 770.246 623.378V839.331C770.246 878.696 738.334 910.608 698.969 910.608H124.464C85.0985 910.608 53.1875 878.696 53.1875 839.331V623.378C53.1875 584.013 85.099 552.102 124.464 552.102ZM124.464 620.832C123.058 620.832 121.918 621.972 121.918 623.378V839.331C121.918 840.737 123.058 841.877 124.464 841.877H698.969C700.375 841.877 701.515 840.737 701.515 839.331V623.378C701.515 621.972 700.375 620.832 698.969 620.832H124.464Z"
        fill="#1B1819" />
</svg>