<svg width="24" height="24" viewBox="0 0 24 24" fill="none" xmlns="http://www.w3.org/2000/svg">
<path d="M0.633 0.552V23.4503H2.28075V24.0015H0V0.0015H2.28075V0.55275L0.633 0.552ZM7.67625 7.80975V8.97H7.707C8.016 8.52375 8.391 8.18475 8.82375 7.94175C9.258 7.6995 9.762 7.57875 10.3238 7.57875C10.863 7.57875 11.3587 7.6845 11.805 7.8915C12.2542 8.10225 12.5903 8.4735 12.8243 9.00075C13.0785 8.62575 13.4265 8.2935 13.8593 8.0085C14.2935 7.7235 14.8095 7.57875 15.4065 7.57875C15.8595 7.57875 16.2773 7.6335 16.6642 7.74675C17.055 7.8555 17.3835 8.03175 17.6603 8.274C17.934 8.52075 18.1485 8.83725 18.3053 9.228C18.4575 9.618 18.5355 10.0913 18.5355 10.6463V16.3725H16.1887V11.5215C16.1887 11.2358 16.1768 10.9628 16.1528 10.7085C16.1378 10.4783 16.0785 10.2555 15.9735 10.0485C15.8752 9.86025 15.7238 9.70425 15.5355 9.60375C15.3443 9.48975 15.0787 9.43575 14.7502 9.43575C14.418 9.43575 14.1525 9.498 13.9493 9.6225C13.7505 9.74775 13.5825 9.9195 13.4692 10.1228C13.3485 10.338 13.2705 10.5758 13.2382 10.818C13.1992 11.0798 13.1805 11.3422 13.176 11.604V16.3732H10.8278V11.5725C10.8278 11.3183 10.824 11.0685 10.809 10.8225C10.8007 10.5848 10.7542 10.3545 10.6642 10.1355C10.5863 9.92475 10.4385 9.7485 10.2502 9.6315C10.059 9.50625 9.77325 9.44025 9.39825 9.44025C9.285 9.44025 9.13725 9.4635 8.95725 9.5145C8.77725 9.56475 8.598 9.6585 8.43 9.79575C8.25825 9.93675 8.109 10.1355 7.98825 10.3935C7.8675 10.6508 7.809 10.9905 7.809 11.4128V16.3778H5.46075V7.812L7.67625 7.80975ZM23.367 23.4495V0.55125H21.7192V0H24V24H21.7192V23.4487L23.367 23.4495Z" fill="white"/>
</svg>
