<svg width="24" height="20" viewBox="0 0 24 20" fill="none" xmlns="http://www.w3.org/2000/svg">
<path fill-rule="evenodd" clip-rule="evenodd" d="M18.384 19.7792C18.706 20.0072 19.121 20.0642 19.491 19.9242C19.8609 19.7832 20.1329 19.4672 20.2149 19.0842C21.0839 15.0002 23.1919 4.66315 23.9829 0.948149C24.0429 0.668149 23.9429 0.377149 23.7229 0.190149C23.5029 0.00314829 23.1979 -0.0508519 22.9259 0.0501482C18.733 1.60215 5.82027 6.44715 0.542386 8.40016C0.207393 8.52416 -0.0106019 8.84616 0.000397845 9.19916C0.0123976 9.55316 0.250392 9.86016 0.593384 9.96316C2.96033 10.6712 6.06726 11.6562 6.06726 11.6562C6.06726 11.6562 7.51923 16.0412 8.27621 18.2712C8.37121 18.5512 8.5902 18.7712 8.8792 18.8472C9.16719 18.9222 9.47518 18.8432 9.69018 18.6402C10.9061 17.4922 12.7861 15.7172 12.7861 15.7172C12.7861 15.7172 16.358 18.3362 18.384 19.7792ZM7.37423 11.1022L9.05319 16.6402L9.42618 13.1332C9.42618 13.1332 15.913 7.28216 19.611 3.94715C19.719 3.84915 19.7339 3.68515 19.644 3.57015C19.555 3.45515 19.391 3.42815 19.268 3.50615C14.9821 6.24316 7.37423 11.1022 7.37423 11.1022Z" fill="white"/>
</svg>
